<?xml version="1.0" encoding="UTF-8"?><svg id="Layer_2" xmlns="http://www.w3.org/2000/svg" viewBox="0 0 36 36"><defs><style>.cls-1{fill:#fff;}.cls-2{fill:#754c29;}</style></defs><g id="Layer_1-2"><path class="cls-2" d="M36,18c0,9.94-8.06,18-18,18S0,27.94,0,18,8.06,0,18,0s18,8.06,18,18"/><path class="cls-1" d="M23.02,20.28c-1.44-2.01-3.08-3.84-4.93-5.49-1.26-1.13-2.6-2.17-4.07-3.03-.91-.53-1.64-.46-2.4.15-1.25,1-2.13,2.26-2.76,3.72-.57,1.34-.91,2.74-1.1,4.17-.22,1.65-.28,3.31.14,4.95.14.41.26.82.42,1.22.45,1.08,1.35,1.66,2.41,1.98,2.11.63,4.26.55,6.4.2,1.18-.19,2.32-.54,3.4-1.04,1.27-.59,2.45-1.32,3.34-2.43.49-.61.7-1.31.43-2.07-.3-.85-.77-1.61-1.29-2.33Z"/><path class="cls-1" d="M25.64,11.1c-.08-.11-.18-.17-.05-.31.72-.74,1.54-1.24,2.62-1.11.34.04.68.06,1.03.09,0-.57-.06-1.08-.33-1.55-.29-.51-.5-.65-1.07-.56-.3.05-.61.14-.9.26-1.03.45-1.9,1.12-2.48,1.95-.57-.3-1.12-.62-1.69-.88-1.59-.74-3.33-1.18-5.09-1.08-1.49.08-3.14.6-3.79,1.09-.35.26-.68.63-.69,1.04,1.03-.45,1.9-.07,2.73.47.71.46,1.39.95,2.07,1.45,1.42,1.06,2.72,2.26,3.93,3.55,1.38,1.48,2.71,3,3.71,4.77.49.87.89,1.78.55,2.85.47-.02.76-.3.96-.61s.64-1.36.86-2.07c.72-2.49.5-4.96-.86-7.37-.42-.71-1-1.32-1.52-1.96Z"/></g></svg>