<?xml version="1.0" encoding="UTF-8"?><svg id="Layer_2" xmlns="http://www.w3.org/2000/svg" viewBox="0 0 36 36"><defs><style>.cls-1{fill:#fff;}.cls-2{fill:#f7941d;}</style></defs><g id="Layer_1-2"><path class="cls-2" d="M36,18c0,9.94-8.06,18-18,18S0,27.94,0,18,8.06,0,18,0s18,8.06,18,18"/><path class="cls-1" d="M18.57,18.67c1.17-.05,2.18-.27,3.03-.64,2.34-1.02,3.48-3.17,3.37-6.04,0-.26-.03-.53-.06-.8-.13,0-.26-.01-.39-.01-2.64,0-4.98,1.87-5.83,4.19-.23.63-.35,1.3-.34,1.97,0,.45.08.9.22,1.34Z"/><path class="cls-1" d="M24.95,24.3s0-.06,0-.1h0s0-.06,0-.1c-.54.09-1.04.13-1.53.24-.96.22-1.86.54-2.63,1.08-.46.32-.88.72-1.23,1.23-.5.73-.79,1.51-.94,2.31-.11.6-.15,1.23-.13,1.86,0,.21.01.42.03.63,0,0,0,.02.01.02.02.06.12.14.21.19.03.02.07.02.09.02h0c.35-.02.7-.07,1.04-.14.16-.03.31-.07.47-.11.98-.25,1.9-.63,2.65-1.25.4-.33.76-.71,1.05-1.19.68-1.1.94-2.29.96-3.58,0-.37-.01-.74-.05-1.12Z"/><path class="cls-1" d="M17.91,4.24c-3.42,3.31-3.22,6.84,0,9.87,3.23-2.99,3.42-6.6,0-9.87Z"/><path class="cls-1" d="M17.2,18.76c.53-4.67-1.94-7.31-6.26-7.54-.01,0-.02,0-.03,0,0,0,0,0,0,0-.03,0-.06,0-.1,0-.15,2.05.02,4.04,1.53,5.61,1.31,1.36,3.04,1.79,4.86,1.94Z"/><path class="cls-1" d="M10.86,24.2c-.11.47-.15.95-.14,1.41.05,3.03,2.36,5.72,5.24,6.09.22.03.45.04.67.04.18,0,.37,0,.55-.03.55-4.3-1.57-7.2-6.32-7.52Z"/><path class="cls-1" d="M10.94,17.7s0,0,0,0h0s-.06,0-.09,0c-.49,4.82,2.08,7.3,6.36,7.49.57-4.24-1.63-7.29-6.25-7.48Z"/><path class="cls-1" d="M19,25.15c3.28,0,6.14-3.05,6.1-6.19,0-.45-.07-.9-.2-1.34-1.88.08-3.43.62-4.54,1.6-1.26,1.12-1.94,2.81-1.88,5.04,0,.28.03.57.06.86.15.01.3.02.45.02Z"/></g></svg>