<?xml version="1.0" encoding="UTF-8"?><svg id="Layer_2" xmlns="http://www.w3.org/2000/svg" viewBox="0 0 36 36"><defs><style>.cls-1{fill:#5ac6e6;}.cls-2{fill:#fff;}</style></defs><g id="Layer_1-2"><path class="cls-1" d="M36,18c0,9.94-8.06,18-18,18S0,27.94,0,18,8.06,0,18,0s18,8.06,18,18"/><path class="cls-2" d="M21.27,13.08c-.89-1.33-2-3.89-1.53-5.95.75-.23,1.05-.84.73-1.29-.3-.43-1.47-.35-1.47-.35l-1.43.03h0s-1.31-.03-1.31-.03c0,0-1.16-.08-1.47.35-.32.45-.02,1.07.73,1.3.47,2.06-.65,4.62-1.53,5.95-.58.87-1.33,1.79-1.33,3.49,0,.59.04,11.17.04,11.17,0,1.86,1.29,2.8,3.83,2.8h1.15s1.03,0,1.03,0c2.54,0,3.83-.94,3.83-2.8,0,0,.04-10.58.04-11.17,0-1.7-.75-2.61-1.33-3.48"/></g></svg>