<?xml version="1.0" encoding="UTF-8"?><svg id="Layer_2" xmlns="http://www.w3.org/2000/svg" viewBox="0 0 36 36"><defs><style>.cls-1{fill:#ffc828;}.cls-2{fill:#fff;}</style></defs><g id="Layer_1-2"><path class="cls-1" d="M36,18c0,9.94-8.06,18-18,18S0,27.94,0,18,8.06,0,18,0s18,8.06,18,18"/><path class="cls-2" d="M27.91,16.85c-.54-1.1-1.22-2.12-2.01-3.06-.43-.51-.89-.98-1.51-1.27-.84.79-1.67,1.58-2.5,2.36-.08.07-.2.16-.29.15-.41-.03-.82-.05-1.21-.14-.42-.1-.83-.26-1.25-.4-.3,1.17-.61,2.35-.92,3.58-.06,0-.19.04-.29,0-.36-.11-.73-.21-1.07-.38-.46-.23-.88-.53-1.34-.76-.34-.18-.68-.4-1.1-.4-.08.81-.16,1.59-.23,2.36-.8-.14-1.53-.27-2.33-.41-.15.54-.28,1.06-.43,1.58-.07.23-.16.47-.27.69-.11.23-.3.31-.55.26-.2-.03-.4-.05-.7-.08.33.83.61,1.6.94,2.35.42.96,1.05,1.81,1.68,2.64,1.09,1.42,2.3,2.72,3.84,3.68,1.81,1.12,3.74,1.48,5.78.82,2.28-.74,4.16-2.08,5.58-4.03.82-1.12,1.28-2.39,1.41-3.77.2-2.04-.34-3.94-1.22-5.75Z"/><path class="cls-2" d="M10.27,19.45c.04-.15.05-.31.07-.47.07-.53.14-1.05.21-1.58.03-.2.13-.27.34-.28.66,0,1.33-.03,2.06-.05-.08-.78-.17-1.57-.26-2.41.29.04.57.05.83.13.63.19,1.24.42,1.87.6.46.13.93.22,1.28.07.07-1.29.14-2.5.2-3.75.92,0,1.84.01,2.75,0,.13,0,.3-.07.38-.16.27-.3.53-.62.76-.96.37-.55.7-1.12,1.06-1.7-.13-.08-.21-.13-.29-.18-1.45-.87-3.01-1.47-4.65-1.85-1.96-.45-3.92-.64-5.9-.13-1.35.35-2.34,1.11-2.79,2.48-.43,1.31-.56,2.65-.53,4.02.05,2.13.43,4.19,1.31,6.15.25.55.24.54.82.49.28-.03.42-.17.48-.41Z"/></g></svg>