<?xml version="1.0" encoding="UTF-8"?><svg id="Layer_2" xmlns="http://www.w3.org/2000/svg" viewBox="0 0 36 36"><defs><style>.cls-1{fill:#36b66d;}.cls-2{fill:#fff;}</style></defs><g id="Layer_1-2"><circle class="cls-1" cx="18" cy="18" r="18"/><path class="cls-2" d="M29.52,5.06c-.49-.36-4.68-3.15-7.22-3.81-.44-.11-1.4-.24-1.53-.17s-.39.24-.51.31c-.13.07-.44.18-.79.07-.35-.11-.68-.25-.57-.32.11-.07.22-.15.37-.21.15-.06.11-.25-.44-.19-.56.06-3.17.1-3.28.14-.11.04-.37.25-.44.42-.07.17-.24.46-.29.58-.06.13-.26.24-.37.1-.11-.14-.36-.29-.42-.29s-.49.04-.36.36c.12.32.35.54.4.62.08.15.15.28.03.36s-.25.19-.33.22-.31.1-.28-.04.04-.53.03-.6c-.01-.07-.22-.12-.35-.18-.13-.06-.24-.17-.26-.03-.03.14-.04.36.01.51.06.15,0,.18-.12.18s-2.33,0-2.53.01c-.19.01-.32.03-.42-.08-.1-.11-.3-.1-.4-.12,0,0,0,0,0,0-1.94,1.11-3.65,2.58-5.04,4.32.01.04.02.08.06.11.38.42,1.25,1.25,1.36,1.44s.38.76.34,1.4c-.04.64-.19,1.78,0,2.27s.57,1.02,1.47,1.55c.45.3.42.42.79,1.02.38.6.95,1.44.98,1.59.23.08.45-.04.45-.04,0,0-1.17-1.7-1.17-1.85s.26-.11.42.04c.15.15,1.32,1.63,1.36,1.78.04.15.38.76.38.87s.6.68.91.79c.3.11.64.38,1.1.57.45.19.68.15.83.08.15-.08.49-.08.83.26s.68.38,1.13.42c.45.04.49.3.53.45.04.15.38.49.49.57.11.08.38.26.68.3.3.04.78-.1.98.23.34.57-.04,1.17-.34,1.63-.3.45-.39,1.74.11,2.57,1.25,2.04,1.89,1.55,2.34,2.46.23,1.1-.49,4.69-.6,5.1-.11.42-.11,1.06-.15,1.44-.22.38-.23.9-.23,1.05.19-.02.38-.03.57-.06.16-.06.35-.16.57-.31.28-.2.72.08.87-.04.15-.11.08-.34.23-.53.15-.19.68-.79.91-.95s.62.13.98-.3c.38-.45.11-.79.38-.95.26-.15.45-.04.68-.15.23-.11,1.4-1.93,1.66-2.23.26-.3.57-.57.91-.64.34-.08.83-.42,1.13-.83.3-.42.11-1.44.26-1.81.15-.38.76-.87,1.02-1.25.26-.38.3-1.02-.42-1.25s-2.38-.68-2.65-.68-.49.3-.6.08c-.11-.23-.23-.15-.38-.15s-.23-.15-.15-.53c.08-.38-.11-.98-.3-1.06s-.38-.34-1.02-.34-.49-.68-1.13-.79c-.64-.11-1.55-.53-1.97-.53s-.76-.38-1.44.04-.53.49-.79.49h-1.55l-.34-.3s0-.79.04-1.02c.04-.23-.19-.42-.42-.38-.23.04-.57-.08-.76-.04-.19.04-.19-.23-.08-.38.11-.15.27-.31.28-.46.01-.15.04-.75-.5-.4s-.69.49-.81.58c-.11.1-.14.14-.43.12-.29-.01-1.21-.58-1.24-1.28-.03-.69.25-1.12.62-1.43.37-.31.9-.6,1.47-.61.57-.01,1-.17,1.32-.06.32.11.69.31.75.61.06.31.28.57.43.57s.21-.19.15-.76c-.07-.14-.28-.14-.26-.42.01-.28.07-.25.19-.4.12-.15.18-.15.18-.29s.04-.22.35-.36c.31-.14.24-.12.4-.17s.24-.4.24-.64,1.96-2.29,2.17-2.35c.21-.06.37-.21.56-.18.18.03.22.08.11.17-.11.08-.19.18-.19.24s.65.1.74.01c.08-.08.37-.4.51-.46.14-.06.21-.39.61-.37.4.01,1.39.04,1.51-.04s.14-.19.01-.35c-.12-.15-.62-.86-.75-.85s-.69.83-.78.92c-.08.08-.25.29-.46.33-.21.04-.42.17-.53.17s-.42-.08-.42-.15-.01-.68-.01-.68h-.51s-.03.1-.11.14-.28.1-.4.15c-.12.06-.32.12-.33.04-.01-.08.35-.46.43-.47.08-.01,1.14-.12,1.36-.11.22.01.49.04.64.01s.28-.28.44-.32c.17-.04.29-.06.47-.17.18-.11.21-.47-.11-.75-.32-.28-1.22-1.19-1.33-1.31s-.15-.32-.15-.44-.17-.37-.36-.37-.57.28-.57.46-.19.21-.31.15c-.11-.06-.97-1.11-1.12-1.18s-1.51-.33-1.64-.19c-.12.14-.04.67.04.82.08.15.54.79.56.87.01.08-.06.53-.29.67-.24.14-.42.24-.51.28-.1.04-.07.4.03.58.1.18.12.15-.04.29-.17.14-.57.07-.68,0s-.03-.46-.06-.65c-.03-.19-.47-.36-.86-.49-.39-.12-2.03-.72-2.22-.87s-.46-.89-.19-1.07c.26-.18.4-.49.57-.57s.4-.1.56-.17.67-.65.81-.86c.14-.21.04-.18.49-.19.44-.01.78-.04.83-.25.06-.21.33-1.1.4-1.15.07-.06.29-.28.69-.06.4.22,1.18.61,1.21.69.03.08.26.56.04.69-.22.14-.67.28-.74.44-.07.17-.21.25.1.26s.62.06.85.12c.22.07.62.28,1.03.44.4.17.49.19.46.08-.03-.11-.42-.28-.25-.28s.71.03.81.03.17-.17-.15-.37c-.32-.21-.67-.6-.62-.65.04-.06.49.21.68.29.19.08.31.03.43-.07.12-.1.18-.14.19-.19.01-.06-.83-.46-1.06-.67-.22-.21-.35-.25-.29-.33.06-.08.28-.01.57.11.29.12,1.51,1.1,1.6,1.24.08.14-.07.31.51.42.58.11.76.14,1.15.46.39.32,1.25.64,1.44.74.19.1.32.25.89.29.57.04.69.1,1.31.04.61-.06,1.29-.18,1.39-.28.1-.1.04-.33-.44-.69Z"/><path class="cls-2" d="M10.28,2.64c.3.04.67-.01.92.05.25.06.63-.03.6-.1s.19-.08.28-.09.26-.24.13-.26c-.14-.03-.4-.04-.47-.1s-.14-.03-.33,0c-.19.03-.29.09-.39.15-.1.06-.06.08-.29.1-.14.02-.32.03-.44.07-.03.01-.06.03-.09.04-.01.01-.03.03-.02.04.05.1.1.1.1.1Z"/><path class="cls-2" d="M34.82,14.44s.12.02.19.03c-.12-.59-.28-1.17-.46-1.73-.04,0-.07.02-.07.02-.07.09-.53.36-.32.85.2.49.49.82.66.83Z"/><path class="cls-2" d="M35.27,16.11c-.33.28-1.12,1.25-1.28,1.32-.2.09-.63.7-.63.97s-.22,2.04-.03,2.22c.19.17.99,1.18,1.18,1.47.08.13.15.4.2.67.43-1.52.68-3.11.68-4.76,0-.64-.04-1.27-.11-1.89Z"/></g></svg>