<?xml version="1.0" encoding="UTF-8"?><svg id="Layer_2" xmlns="http://www.w3.org/2000/svg" viewBox="0 0 39 39"><defs><style>.cls-1{fill:#00a651;}.cls-2{fill:#fff;}</style></defs><g id="Layer_1-2"><path class="cls-2" d="M19.5,0C8.75,0,0,8.75,0,19.5s8.75,19.5,19.5,19.5,19.5-8.75,19.5-19.5S30.25,0,19.5,0Z"/><path class="cls-1" d="M37.5,19.5c0,9.94-8.06,18-18,18S1.5,29.44,1.5,19.5,9.56,1.5,19.5,1.5s18,8.06,18,18"/><path class="cls-2" d="M17.24,15.04s2.85,2.59,5.48,7.69c1.28,2.48,2.07,5.09,2.54,7.12.62-1.64,2.67-7.83.16-12.62-2.92-5.58-10.91-7.15-10.91-7.15,0,0,.13,1.05-.29,2.66-.69,2.68-1.86,6.9-.04,10.39,2.43,4.64,8.37,6.51,10.3,7.01-.81-1.84-1.92-4.23-3.18-6.66-2.64-5.09-4.07-8.42-4.07-8.42"/></g></svg>