<?xml version="1.0" encoding="UTF-8"?><svg id="Layer_2" xmlns="http://www.w3.org/2000/svg" viewBox="0 0 39 39"><defs><style>.cls-1{fill:#fff;}.cls-2{fill:#702573;}</style></defs><g id="Layer_1-2"><path class="cls-1" d="M19.5,0C8.75,0,0,8.75,0,19.5s8.75,19.5,19.5,19.5,19.5-8.75,19.5-19.5S30.25,0,19.5,0Z"/><path class="cls-2" d="M37.5,19.5c0,9.94-8.06,18-18,18S1.5,29.44,1.5,19.5,9.56,1.5,19.5,1.5s18,8.06,18,18"/><path class="cls-1" d="M24.42,30.09c-1.37.34-2.86.5-4.48.5s-3.22-.27-4.63-.8c-1.41-.53-2.62-1.28-3.63-2.25-1.02-.96-1.81-2.12-2.38-3.47-.57-1.35-.85-2.85-.85-4.51s.29-3.19.87-4.55c.58-1.36,1.38-2.52,2.41-3.48,1.02-.96,2.23-1.69,3.61-2.2,1.38-.51,2.87-.77,4.46-.77s3.19.25,4.61.75c1.42.5,2.57,1.18,3.46,2.03l-3.19,3.63c-.5-.57-1.14-1.04-1.95-1.4-.81-.36-1.73-.55-2.75-.55-.89,0-1.71.16-2.45.48-.75.33-1.4.78-1.95,1.36-.55.58-.98,1.27-1.29,2.07-.31.8-.46,1.67-.46,2.62s.14,1.85.41,2.66c.28.81.69,1.5,1.23,2.08.54.58,1.21,1.03,2.01,1.36.8.33,1.71.49,2.73.49.59,0,1.15-.04,1.69-.13.53-.09,1.03-.23,1.48-.43v-3.81h-3.99v-4.08h8.63v11.09c-1.02.53-2.22.97-3.59,1.3"/></g></svg>