<?xml version="1.0" encoding="UTF-8"?><svg id="Layer_2" xmlns="http://www.w3.org/2000/svg" viewBox="0 0 39 39"><defs><style>.cls-1,.cls-2{fill-rule:evenodd;}.cls-1,.cls-3{fill:#fff;}.cls-2{fill:#cfae70;}</style></defs><g id="Layer_1-2"><path class="cls-3" d="M19.5,0C8.75,0,0,8.75,0,19.5s8.75,19.5,19.5,19.5,19.5-8.75,19.5-19.5S30.25,0,19.5,0Z"/><path class="cls-2" d="M19.5,1.5C9.56,1.5,1.5,9.56,1.5,19.5s8.06,18,18,18,18-8.06,18-18S29.44,1.5,19.5,1.5Z"/><path class="cls-1" d="M25.6,15.81c-2.04-1.96-6.15-3.41-9.73-4.24-3.91-.89-3.44-1.65-5.37-1.04-1.32.42-1.67,2.93-.41,4.7.92,1.29,1.08,3.79,1.62,6.32,1.15,5.4,5.72,12.1,13.09,9.53,7.27-2.54,6.19-10.1.8-15.26ZM24.23,29.77c-6.16,2.15-9.69-3.51-10.93-7.95-2.01-7.22.51-2.71,1-1.35,1.06,2.96,3.39,10.12,9.2,7.94,2.53-.95,3.64-3.72,4.01-5.28.61,2.63-.04,5.52-3.27,6.64Z"/></g></svg>