<?xml version="1.0" encoding="UTF-8"?><svg id="Layer_2" xmlns="http://www.w3.org/2000/svg" viewBox="0 0 39 39"><defs><style>.cls-1{fill:#fff;}.cls-2{fill:#08bed5;}</style></defs><g id="Layer_1-2"><path class="cls-1" d="M19.5,0C8.75,0,0,8.75,0,19.5s8.75,19.5,19.5,19.5,19.5-8.75,19.5-19.5S30.25,0,19.5,0Z"/><path class="cls-2" d="M37.5,19.5c0,9.94-8.06,18-18,18S1.5,29.44,1.5,19.5,9.56,1.5,19.5,1.5s18,8.06,18,18"/><path class="cls-1" d="M28.86,19.71c-.48-.01-.88-.44-.87-.91,0-.48.42-.88.91-.87.49,0,.88.41.87.9,0,.48-.43.89-.9.88M33.39,18.84c-1.42-1.88-3.47-3.4-5.66-4.19-.26-.1-.99-.29-1.39-.38-1.09-.27-2.2-.34-3.32-.33-.18,0-.41-.02-.54-.13-.63-.57-1.14-1.06-2.05-1.57-.69-.39-1.2-.62-1.63-.8-.43-.18-1.25-.38-1.29-.18-.04.2.73,2.2,1.1,3.34-2.62.73-5.11,1.88-7.38,3.51-1.71-1.71-5.57-3.75-6.14-3.39-.28.17.51,2.45.5,4.79,0,2.41-.8,4.88-.38,5.16.49.1,4.29-1.64,5.98-3.31,1.87,1.41,3.92,2.41,6.07,3.13-.35,1.39-1.45,3.18-1.23,3.34.14.08,1.28-.4,1.77-.63.49-.23,1.69-.79,2.87-1.69.14-.11.35-.16.53-.15.38,0,.75.08,1.12.1,1.34.09,3.33-.02,4.7-.31,3.35-.7,5.3-2.52,6.71-4.57.13-.19.24-.45.24-.68s-.33-.72-.58-1.06"/></g></svg>