<?xml version="1.0" encoding="UTF-8"?><svg id="Layer_2" xmlns="http://www.w3.org/2000/svg" viewBox="0 0 39 39"><defs><style>.cls-1{fill:#fff;}</style></defs><g id="Layer_1-2"><path class="cls-1" d="M19.5,0C8.75,0,0,8.75,0,19.5s8.75,19.5,19.5,19.5,19.5-8.75,19.5-19.5S30.25,0,19.5,0Z"/><circle cx="19.5" cy="19.51" r="18"/><path class="cls-1" d="M33.37,23.59c-.62.02-1.14-.21-1.63-.55-.57-.4-1.17-.77-1.73-1.19-1.49-1.13-3.05-.98-4.64-.29-.26.11-.56.27-.52.63.04.36.36.45.64.5.63.11,1.27.18,1.91.26.75.09,1.44.35,2.05.78.11.08.25.16.23.32-.04.2-.23.17-.38.17-.45.01-.89.13-1.32.22-.82.17-1.64.38-2.48.35-1.21-.04-1.88-.66-1.96-1.87-.06-.88,0-1.76.07-2.63.2-2.41.51-4.8,1.03-7.17.2-.92-.32-1.38-1.24-1.12-.89.24-1.62.74-2.28,1.37-.27.26-.33.5-.06.8.29.33.46.73.5,1.17.17,1.88.36,3.76.27,5.66-.14,2.72-2.22,3.36-3.95,3.18-1.47-.16-1.9-.76-1.38-2.06.02-.04.03-.07.04-.11.04-.18.15-.38-.06-.53-.2-.15-.37-.01-.53.1-.64.46-1.07,1.08-1.36,1.79-.39.99-.17,1.74.7,2.36,1.2.85,2.52.98,3.9.53,1.15-.37,2.01-1.14,2.74-2.18.45,1.36,1.23,2.09,2.54,2.35,1.85.38,3.65-.03,5.44-.41,1.2-.25,2.36-.68,3.55-.97.47-.11.85-.21.82-.78-.03-.56-.43-.71-.9-.69Z"/><path class="cls-1" d="M14.13,15.06c-.06-.68-.03-1.37-.29-2.02-.28-.7-.8-.89-1.45-.53-.76.42-1.15,1.17-1.05,2.04.05.37.11.73.18,1.09.37,1.96.68,3.92.65,5.92-.02.83-.24,1.57-1.09,1.91-1.13.46-2.31.55-3.5.25-.42-.11-.83-.27-.95-.77-.12-.48.23-.75.53-1.02.3-.26.55-.55.25-.94-.31-.41-.7-.35-1.09-.1-.57.37-1.01.85-1.31,1.46-.92,1.85-.08,3.26,1.97,3.31,1.48.04,2.89-.36,4.32-.66,1.56-.34,2.29-1.35,2.63-2.79.35-1.49.38-3.01.36-4.54-.06-.87-.1-1.75-.18-2.63Z"/><path class="cls-1" d="M16.06,15.83c.2.12.41.23.6.36,1.59,1.02,2.86,2.27,3.16,4.25.04.26.14.53.27.77.17.32.33.82.73.73.4-.09.12-.62.24-.9-.05-1.3-.26-2.54-.76-3.72-.49-1.17-1.21-2.22-1.85-3.3-.88-1.49-1.59-1.54-2.72-.24-.71.82-.6,1.49.32,2.06Z"/></g></svg>