<svg width="261" height="261" viewBox="0 0 261 261" fill="none" xmlns="http://www.w3.org/2000/svg">
<g clip-path="url(#clip0_1104_22051)">
<path d="M261 0H0V261H261V0Z" fill="white"/>
<path d="M17.9879 13.9971H12.7559V50.6281H17.9879V13.9971Z" fill="#461C00"/>
<path d="M17.9879 55.8672H12.7559V61.0992H17.9879V55.8672Z" fill="#461C00"/>
<path d="M17.9879 66.3311H12.7559V87.2662H17.9879V66.3311Z" fill="#461C00"/>
<path d="M17.9879 97.7305H12.7559V113.426H17.9879V97.7305Z" fill="#461C00"/>
<path d="M17.9879 118.658H12.7559V123.89H17.9879V118.658Z" fill="#461C00"/>
<path d="M17.9879 129.13H12.7559V134.362H17.9879V129.13Z" fill="#461C00"/>
<path d="M17.9879 139.594H12.7559V144.826H17.9879V139.594Z" fill="#461C00"/>
<path d="M17.9879 155.289H12.7559V160.521H17.9879V155.289Z" fill="#461C00"/>
<path d="M17.9879 176.225H12.7559V191.921H17.9879V176.225Z" fill="#461C00"/>
<path d="M17.9879 202.392H12.7559V207.624H17.9879V202.392Z" fill="#461C00"/>
<path d="M17.9879 212.855H12.7559V249.487H17.9879V212.855Z" fill="#461C00"/>
<path d="M23.2203 13.9971H17.9883V19.2291H23.2203V13.9971Z" fill="#461C00"/>
<path d="M23.2203 45.3965H17.9883V50.6285H23.2203V45.3965Z" fill="#461C00"/>
<path d="M23.2203 61.0996H17.9883V66.3316H23.2203V61.0996Z" fill="#461C00"/>
<path d="M23.2203 71.5635H17.9883V76.7955H23.2203V71.5635Z" fill="#461C00"/>
<path d="M23.2203 82.0273H17.9883V97.7233H23.2203V82.0273Z" fill="#461C00"/>
<path d="M23.2203 108.194H17.9883V113.426H23.2203V108.194Z" fill="#461C00"/>
<path d="M23.2203 129.13H17.9883V139.594H23.2203V129.13Z" fill="#461C00"/>
<path d="M23.2203 144.825H17.9883V160.521H23.2203V144.825Z" fill="#461C00"/>
<path d="M23.2203 165.761H17.9883V176.225H23.2203V165.761Z" fill="#461C00"/>
<path d="M23.2203 181.456H17.9883V186.688H23.2203V181.456Z" fill="#461C00"/>
<path d="M23.2203 197.159H17.9883V202.391H23.2203V197.159Z" fill="#461C00"/>
<path d="M23.2203 212.855H17.9883V218.087H23.2203V212.855Z" fill="#461C00"/>
<path d="M23.2203 244.255H17.9883V249.487H23.2203V244.255Z" fill="#461C00"/>
<path d="M28.4586 13.9971H23.2266V19.2291H28.4586V13.9971Z" fill="#461C00"/>
<path d="M28.4586 24.4678H23.2266V40.1637H28.4586V24.4678Z" fill="#461C00"/>
<path d="M28.4586 45.3965H23.2266V50.6285H28.4586V45.3965Z" fill="#461C00"/>
<path d="M28.4586 61.0996H23.2266V66.3316H28.4586V61.0996Z" fill="#461C00"/>
<path d="M28.4586 87.2588H23.2266V113.426H28.4586V87.2588Z" fill="#461C00"/>
<path d="M28.4586 118.658H23.2266V123.89H28.4586V118.658Z" fill="#461C00"/>
<path d="M28.4586 129.13H23.2266V139.594H28.4586V129.13Z" fill="#461C00"/>
<path d="M28.4586 144.825H23.2266V150.057H28.4586V144.825Z" fill="#461C00"/>
<path d="M28.4586 160.528H23.2266V165.76H28.4586V160.528Z" fill="#461C00"/>
<path d="M28.4586 181.456H23.2266V186.688H28.4586V181.456Z" fill="#461C00"/>
<path d="M28.4586 197.159H23.2266V202.391H28.4586V197.159Z" fill="#461C00"/>
<path d="M28.4586 212.855H23.2266V218.087H28.4586V212.855Z" fill="#461C00"/>
<path d="M28.4586 223.319H23.2266V239.015H28.4586V223.319Z" fill="#461C00"/>
<path d="M28.4586 244.255H23.2266V249.487H28.4586V244.255Z" fill="#461C00"/>
<path d="M33.691 13.9971H28.459V19.2291H33.691V13.9971Z" fill="#461C00"/>
<path d="M33.691 24.4678H28.459V40.1637H33.691V24.4678Z" fill="#461C00"/>
<path d="M33.691 45.3965H28.459V50.6285H33.691V45.3965Z" fill="#461C00"/>
<path d="M33.691 71.5635H28.459V82.0275H33.691V71.5635Z" fill="#461C00"/>
<path d="M33.691 92.498H28.459V97.73H33.691V92.498Z" fill="#461C00"/>
<path d="M33.691 102.962H28.459V108.194H33.691V102.962Z" fill="#461C00"/>
<path d="M33.691 123.897H28.459V129.129H33.691V123.897Z" fill="#461C00"/>
<path d="M33.691 139.594H28.459V150.058H33.691V139.594Z" fill="#461C00"/>
<path d="M33.691 160.528H28.459V170.992H33.691V160.528Z" fill="#461C00"/>
<path d="M33.691 197.159H28.459V207.623H33.691V197.159Z" fill="#461C00"/>
<path d="M33.691 212.855H28.459V218.087H33.691V212.855Z" fill="#461C00"/>
<path d="M33.691 223.319H28.459V239.015H33.691V223.319Z" fill="#461C00"/>
<path d="M33.691 244.255H28.459V249.487H33.691V244.255Z" fill="#461C00"/>
<path d="M38.9234 13.9971H33.6914V19.2291H38.9234V13.9971Z" fill="#461C00"/>
<path d="M38.9234 24.4678H33.6914V40.1637H38.9234V24.4678Z" fill="#461C00"/>
<path d="M38.9234 45.3965H33.6914V50.6285H38.9234V45.3965Z" fill="#461C00"/>
<path d="M38.9234 61.0996H33.6914V66.3316H38.9234V61.0996Z" fill="#461C00"/>
<path d="M38.9234 71.5635H33.6914V87.2594H38.9234V71.5635Z" fill="#461C00"/>
<path d="M38.9234 97.7305H33.6914V102.962H38.9234V97.7305Z" fill="#461C00"/>
<path d="M38.9234 108.194H33.6914V113.426H38.9234V108.194Z" fill="#461C00"/>
<path d="M38.9234 118.658H33.6914V144.825H38.9234V118.658Z" fill="#461C00"/>
<path d="M38.9234 155.289H33.6914V165.753H38.9234V155.289Z" fill="#461C00"/>
<path d="M38.9234 181.456H33.6914V207.623H38.9234V181.456Z" fill="#461C00"/>
<path d="M38.9234 212.855H33.6914V218.087H38.9234V212.855Z" fill="#461C00"/>
<path d="M38.9234 223.319H33.6914V239.015H38.9234V223.319Z" fill="#461C00"/>
<path d="M38.9234 244.255H33.6914V249.487H38.9234V244.255Z" fill="#461C00"/>
<path d="M44.1558 13.9971H38.9238V19.2291H44.1558V13.9971Z" fill="#461C00"/>
<path d="M44.1558 45.3965H38.9238V50.6285H44.1558V45.3965Z" fill="#461C00"/>
<path d="M44.1558 87.2588H38.9238V92.4908H44.1558V87.2588Z" fill="#461C00"/>
<path d="M44.1558 118.658H38.9238V123.89H44.1558V118.658Z" fill="#461C00"/>
<path d="M44.1558 139.594H38.9238V144.826H44.1558V139.594Z" fill="#461C00"/>
<path d="M44.1558 150.058H38.9238V160.522H44.1558V150.058Z" fill="#461C00"/>
<path d="M44.1558 170.992H38.9238V176.224H44.1558V170.992Z" fill="#461C00"/>
<path d="M44.1558 181.456H38.9238V191.92H44.1558V181.456Z" fill="#461C00"/>
<path d="M44.1558 212.855H38.9238V218.087H44.1558V212.855Z" fill="#461C00"/>
<path d="M44.1558 244.255H38.9238V249.487H44.1558V244.255Z" fill="#461C00"/>
<path d="M49.3863 13.9971H44.1543V50.6281H49.3863V13.9971Z" fill="#461C00"/>
<path d="M49.3863 55.8672H44.1543V61.0992H49.3863V55.8672Z" fill="#461C00"/>
<path d="M49.3863 66.3311H44.1543V71.563H49.3863V66.3311Z" fill="#461C00"/>
<path d="M49.3863 76.7949H44.1543V82.0269H49.3863V76.7949Z" fill="#461C00"/>
<path d="M49.3863 87.2588H44.1543V92.4908H49.3863V87.2588Z" fill="#461C00"/>
<path d="M49.3863 97.7305H44.1543V102.962H49.3863V97.7305Z" fill="#461C00"/>
<path d="M49.3863 108.194H44.1543V113.426H49.3863V108.194Z" fill="#461C00"/>
<path d="M49.3863 118.658H44.1543V123.89H49.3863V118.658Z" fill="#461C00"/>
<path d="M49.3863 129.13H44.1543V134.362H49.3863V129.13Z" fill="#461C00"/>
<path d="M49.3863 139.594H44.1543V144.826H49.3863V139.594Z" fill="#461C00"/>
<path d="M49.3863 150.058H44.1543V155.29H49.3863V150.058Z" fill="#461C00"/>
<path d="M49.3863 160.528H44.1543V165.76H49.3863V160.528Z" fill="#461C00"/>
<path d="M49.3863 170.992H44.1543V176.224H49.3863V170.992Z" fill="#461C00"/>
<path d="M49.3863 181.456H44.1543V186.688H49.3863V181.456Z" fill="#461C00"/>
<path d="M49.3863 191.921H44.1543V197.153H49.3863V191.921Z" fill="#461C00"/>
<path d="M49.3863 202.392H44.1543V207.624H49.3863V202.392Z" fill="#461C00"/>
<path d="M49.3863 212.855H44.1543V249.487H49.3863V212.855Z" fill="#461C00"/>
<path d="M54.6187 61.0996H49.3867V66.3316H54.6187V61.0996Z" fill="#461C00"/>
<path d="M54.6187 76.7949H49.3867V87.2589H54.6187V76.7949Z" fill="#461C00"/>
<path d="M54.6187 97.7305H49.3867V102.962H54.6187V97.7305Z" fill="#461C00"/>
<path d="M54.6187 108.194H49.3867V123.89H54.6187V108.194Z" fill="#461C00"/>
<path d="M54.6187 139.594H49.3867V150.058H54.6187V139.594Z" fill="#461C00"/>
<path d="M54.6187 181.456H49.3867V191.92H54.6187V181.456Z" fill="#461C00"/>
<path d="M54.6187 197.159H49.3867V202.391H54.6187V197.159Z" fill="#461C00"/>
<path d="M59.8511 19.2363H54.6191V34.9323H59.8511V19.2363Z" fill="#461C00"/>
<path d="M59.8511 45.3965H54.6191V66.3316H59.8511V45.3965Z" fill="#461C00"/>
<path d="M59.8511 71.5635H54.6191V76.7955H59.8511V71.5635Z" fill="#461C00"/>
<path d="M59.8511 92.498H54.6191V97.73H59.8511V92.498Z" fill="#461C00"/>
<path d="M59.8511 118.658H54.6191V155.289H59.8511V118.658Z" fill="#461C00"/>
<path d="M59.8511 176.225H54.6191V181.457H59.8511V176.225Z" fill="#461C00"/>
<path d="M59.8511 202.392H54.6191V212.856H59.8511V202.392Z" fill="#461C00"/>
<path d="M59.8511 244.255H54.6191V249.487H59.8511V244.255Z" fill="#461C00"/>
<path d="M65.0894 34.9326H59.8574V40.1646H65.0894V34.9326Z" fill="#461C00"/>
<path d="M65.0894 61.0996H59.8574V71.5636H65.0894V61.0996Z" fill="#461C00"/>
<path d="M65.0894 82.0273H59.8574V92.4913H65.0894V82.0273Z" fill="#461C00"/>
<path d="M65.0894 97.7305H59.8574V108.194H65.0894V97.7305Z" fill="#461C00"/>
<path d="M65.0894 118.658H59.8574V129.122H65.0894V118.658Z" fill="#461C00"/>
<path d="M65.0894 144.825H59.8574V165.76H65.0894V144.825Z" fill="#461C00"/>
<path d="M65.0894 170.992H59.8574V186.688H65.0894V170.992Z" fill="#461C00"/>
<path d="M65.0894 191.921H59.8574V197.153H65.0894V191.921Z" fill="#461C00"/>
<path d="M65.0894 202.392H59.8574V207.624H65.0894V202.392Z" fill="#461C00"/>
<path d="M65.0894 218.088H59.8574V228.552H65.0894V218.088Z" fill="#461C00"/>
<path d="M70.3218 13.9971H65.0898V19.2291H70.3218V13.9971Z" fill="#461C00"/>
<path d="M70.3218 45.3965H65.0898V55.8605H70.3218V45.3965Z" fill="#461C00"/>
<path d="M70.3218 61.0996H65.0898V82.0347H70.3218V61.0996Z" fill="#461C00"/>
<path d="M70.3218 87.2588H65.0898V92.4908H70.3218V87.2588Z" fill="#461C00"/>
<path d="M70.3218 97.7305H65.0898V118.666H70.3218V97.7305Z" fill="#461C00"/>
<path d="M70.3218 123.897H65.0898V129.129H70.3218V123.897Z" fill="#461C00"/>
<path d="M70.3218 139.594H65.0898V144.826H70.3218V139.594Z" fill="#461C00"/>
<path d="M70.3218 150.058H65.0898V170.993H70.3218V150.058Z" fill="#461C00"/>
<path d="M70.3218 176.225H65.0898V181.457H70.3218V176.225Z" fill="#461C00"/>
<path d="M70.3218 186.688H65.0898V191.92H70.3218V186.688Z" fill="#461C00"/>
<path d="M70.3218 202.392H65.0898V207.624H70.3218V202.392Z" fill="#461C00"/>
<path d="M70.3218 212.855H65.0898V233.791H70.3218V212.855Z" fill="#461C00"/>
<path d="M75.5543 19.2363H70.3223V24.4683H75.5543V19.2363Z" fill="#461C00"/>
<path d="M75.5543 34.9326H70.3223V40.1646H75.5543V34.9326Z" fill="#461C00"/>
<path d="M75.5543 50.6279H70.3223V61.0919H75.5543V50.6279Z" fill="#461C00"/>
<path d="M75.5543 87.2588H70.3223V92.4908H75.5543V87.2588Z" fill="#461C00"/>
<path d="M75.5543 108.194H70.3223V113.426H75.5543V108.194Z" fill="#461C00"/>
<path d="M75.5543 123.897H70.3223V134.361H75.5543V123.897Z" fill="#461C00"/>
<path d="M75.5543 150.058H70.3223V160.522H75.5543V150.058Z" fill="#461C00"/>
<path d="M75.5543 165.761H70.3223V181.457H75.5543V165.761Z" fill="#461C00"/>
<path d="M75.5543 186.688H70.3223V207.624H75.5543V186.688Z" fill="#461C00"/>
<path d="M75.5543 212.855H70.3223V223.319H75.5543V212.855Z" fill="#461C00"/>
<path d="M75.5543 228.559H70.3223V233.791H75.5543V228.559Z" fill="#461C00"/>
<path d="M75.5543 239.022H70.3223V249.486H75.5543V239.022Z" fill="#461C00"/>
<path d="M80.7867 29.7002H75.5547V34.9322H80.7867V29.7002Z" fill="#461C00"/>
<path d="M80.7867 45.3965H75.5547V50.6285H80.7867V45.3965Z" fill="#461C00"/>
<path d="M80.7867 55.8672H75.5547V61.0992H80.7867V55.8672Z" fill="#461C00"/>
<path d="M80.7867 76.7949H75.5547V92.4909H80.7867V76.7949Z" fill="#461C00"/>
<path d="M80.7867 97.7305H75.5547V108.194H80.7867V97.7305Z" fill="#461C00"/>
<path d="M80.7867 113.427H75.5547V123.891H80.7867V113.427Z" fill="#461C00"/>
<path d="M80.7867 129.13H75.5547V160.529H80.7867V129.13Z" fill="#461C00"/>
<path d="M80.7867 186.688H75.5547V197.152H80.7867V186.688Z" fill="#461C00"/>
<path d="M80.7867 218.088H75.5547V223.32H80.7867V218.088Z" fill="#461C00"/>
<path d="M80.7867 228.559H75.5547V239.023H80.7867V228.559Z" fill="#461C00"/>
<path d="M80.7867 244.255H75.5547V249.487H80.7867V244.255Z" fill="#461C00"/>
<path d="M86.0171 24.4678H80.7852V29.6998H86.0171V24.4678Z" fill="#461C00"/>
<path d="M86.0171 61.0996H80.7852V82.0347H86.0171V61.0996Z" fill="#461C00"/>
<path d="M86.0171 87.2588H80.7852V97.7228H86.0171V87.2588Z" fill="#461C00"/>
<path d="M86.0171 102.962H80.7852V113.426H86.0171V102.962Z" fill="#461C00"/>
<path d="M86.0171 123.897H80.7852V129.129H86.0171V123.897Z" fill="#461C00"/>
<path d="M86.0171 134.361H80.7852V144.825H86.0171V134.361Z" fill="#461C00"/>
<path d="M86.0171 155.289H80.7852V160.521H86.0171V155.289Z" fill="#461C00"/>
<path d="M86.0171 170.992H80.7852V176.224H86.0171V170.992Z" fill="#461C00"/>
<path d="M86.0171 186.688H80.7852V191.92H86.0171V186.688Z" fill="#461C00"/>
<path d="M86.0171 197.159H80.7852V202.391H86.0171V197.159Z" fill="#461C00"/>
<path d="M86.0171 207.624H80.7852V212.856H86.0171V207.624Z" fill="#461C00"/>
<path d="M86.0171 228.559H80.7852V244.255H86.0171V228.559Z" fill="#461C00"/>
<path d="M91.2496 13.9971H86.0176V24.4611H91.2496V13.9971Z" fill="#461C00"/>
<path d="M91.2496 34.9326H86.0176V40.1646H91.2496V34.9326Z" fill="#461C00"/>
<path d="M91.2496 45.3965H86.0176V71.5636H91.2496V45.3965Z" fill="#461C00"/>
<path d="M91.2496 76.7949H86.0176V82.0269H91.2496V76.7949Z" fill="#461C00"/>
<path d="M91.2496 87.2588H86.0176V102.955H91.2496V87.2588Z" fill="#461C00"/>
<path d="M91.2496 118.658H86.0176V129.122H91.2496V118.658Z" fill="#461C00"/>
<path d="M91.2496 134.361H86.0176V144.825H91.2496V134.361Z" fill="#461C00"/>
<path d="M91.2496 155.289H86.0176V176.224H91.2496V155.289Z" fill="#461C00"/>
<path d="M91.2496 191.921H86.0176V197.153H91.2496V191.921Z" fill="#461C00"/>
<path d="M91.2496 202.392H86.0176V207.624H91.2496V202.392Z" fill="#461C00"/>
<path d="M91.2496 218.088H86.0176V228.552H91.2496V218.088Z" fill="#461C00"/>
<path d="M96.482 29.7002H91.25V34.9322H96.482V29.7002Z" fill="#461C00"/>
<path d="M96.482 66.3311H91.25V82.027H96.482V66.3311Z" fill="#461C00"/>
<path d="M96.482 87.2588H91.25V92.4908H96.482V87.2588Z" fill="#461C00"/>
<path d="M96.482 97.7305H91.25V102.962H96.482V97.7305Z" fill="#461C00"/>
<path d="M96.482 108.194H91.25V123.89H96.482V108.194Z" fill="#461C00"/>
<path d="M96.482 134.361H91.25V144.825H96.482V134.361Z" fill="#461C00"/>
<path d="M96.482 155.289H91.25V165.753H96.482V155.289Z" fill="#461C00"/>
<path d="M96.482 176.225H91.25V186.689H96.482V176.225Z" fill="#461C00"/>
<path d="M96.482 202.392H91.25V207.624H96.482V202.392Z" fill="#461C00"/>
<path d="M96.482 228.559H91.25V233.791H96.482V228.559Z" fill="#461C00"/>
<path d="M96.482 239.022H91.25V249.486H96.482V239.022Z" fill="#461C00"/>
<path d="M101.72 13.9971H96.4883V19.2291H101.72V13.9971Z" fill="#461C00"/>
<path d="M101.72 29.7002H96.4883V34.9322H101.72V29.7002Z" fill="#461C00"/>
<path d="M101.72 40.1641H96.4883V50.628H101.72V40.1641Z" fill="#461C00"/>
<path d="M101.72 55.8672H96.4883V71.5632H101.72V55.8672Z" fill="#461C00"/>
<path d="M101.72 82.0273H96.4883V87.2593H101.72V82.0273Z" fill="#461C00"/>
<path d="M101.72 108.194H96.4883V113.426H101.72V108.194Z" fill="#461C00"/>
<path d="M101.72 123.897H96.4883V134.361H101.72V123.897Z" fill="#461C00"/>
<path d="M101.72 150.058H96.4883V155.29H101.72V150.058Z" fill="#461C00"/>
<path d="M101.72 160.528H96.4883V170.992H101.72V160.528Z" fill="#461C00"/>
<path d="M101.72 181.456H96.4883V186.688H101.72V181.456Z" fill="#461C00"/>
<path d="M101.72 191.921H96.4883V197.153H101.72V191.921Z" fill="#461C00"/>
<path d="M101.72 233.791H96.4883V239.023H101.72V233.791Z" fill="#461C00"/>
<path d="M106.953 13.9971H101.721V34.9322H106.953V13.9971Z" fill="#461C00"/>
<path d="M106.953 40.1641H101.721V45.3961H106.953V40.1641Z" fill="#461C00"/>
<path d="M106.953 55.8672H101.721V61.0992H106.953V55.8672Z" fill="#461C00"/>
<path d="M106.953 66.3311H101.721V92.4981H106.953V66.3311Z" fill="#461C00"/>
<path d="M106.953 97.7305H101.721V123.898H106.953V97.7305Z" fill="#461C00"/>
<path d="M106.953 134.361H101.721V150.057H106.953V134.361Z" fill="#461C00"/>
<path d="M106.953 155.289H101.721V170.985H106.953V155.289Z" fill="#461C00"/>
<path d="M106.953 176.225H101.721V191.921H106.953V176.225Z" fill="#461C00"/>
<path d="M106.953 202.392H101.721V228.559H106.953V202.392Z" fill="#461C00"/>
<path d="M106.953 233.791H101.721V244.255H106.953V233.791Z" fill="#461C00"/>
<path d="M112.185 29.7002H106.953V34.9322H112.185V29.7002Z" fill="#461C00"/>
<path d="M112.185 45.3965H106.953V50.6285H112.185V45.3965Z" fill="#461C00"/>
<path d="M112.185 61.0996H106.953V66.3316H112.185V61.0996Z" fill="#461C00"/>
<path d="M112.185 71.5635H106.953V82.0275H112.185V71.5635Z" fill="#461C00"/>
<path d="M112.185 87.2588H106.953V92.4908H112.185V87.2588Z" fill="#461C00"/>
<path d="M112.185 97.7305H106.953V102.962H112.185V97.7305Z" fill="#461C00"/>
<path d="M112.185 108.194H106.953V113.426H112.185V108.194Z" fill="#461C00"/>
<path d="M112.185 118.658H106.953V123.89H112.185V118.658Z" fill="#461C00"/>
<path d="M112.185 129.13H106.953V150.065H112.185V129.13Z" fill="#461C00"/>
<path d="M112.185 155.289H106.953V165.753H112.185V155.289Z" fill="#461C00"/>
<path d="M112.185 176.225H106.953V181.457H112.185V176.225Z" fill="#461C00"/>
<path d="M112.185 191.921H106.953V202.385H112.185V191.921Z" fill="#461C00"/>
<path d="M112.185 207.624H106.953V212.856H112.185V207.624Z" fill="#461C00"/>
<path d="M112.185 218.088H106.953V223.32H112.185V218.088Z" fill="#461C00"/>
<path d="M112.185 228.559H106.953V233.791H112.185V228.559Z" fill="#461C00"/>
<path d="M112.185 239.022H106.953V244.254H112.185V239.022Z" fill="#461C00"/>
<path d="M117.418 13.9971H112.186V19.2291H117.418V13.9971Z" fill="#461C00"/>
<path d="M117.418 24.4678H112.186V29.6998H117.418V24.4678Z" fill="#461C00"/>
<path d="M117.418 50.6279H112.186V55.8599H117.418V50.6279Z" fill="#461C00"/>
<path d="M117.418 61.0996H112.186V71.5636H117.418V61.0996Z" fill="#461C00"/>
<path d="M117.418 87.2588H112.186V123.89H117.418V87.2588Z" fill="#461C00"/>
<path d="M117.418 129.13H112.186V134.362H117.418V129.13Z" fill="#461C00"/>
<path d="M117.418 139.594H112.186V150.058H117.418V139.594Z" fill="#461C00"/>
<path d="M117.418 155.289H112.186V160.521H117.418V155.289Z" fill="#461C00"/>
<path d="M117.418 176.225H112.186V191.921H117.418V176.225Z" fill="#461C00"/>
<path d="M117.418 202.392H112.186V207.624H117.418V202.392Z" fill="#461C00"/>
<path d="M117.418 212.855H112.186V223.319H117.418V212.855Z" fill="#461C00"/>
<path d="M117.418 244.255H112.186V249.487H117.418V244.255Z" fill="#461C00"/>
<path d="M122.65 13.9971H117.418V19.2291H122.65V13.9971Z" fill="#461C00"/>
<path d="M122.65 34.9326H117.418V66.3317H122.65V34.9326Z" fill="#461C00"/>
<path d="M122.65 76.7949H117.418V82.0269H122.65V76.7949Z" fill="#461C00"/>
<path d="M122.65 92.498H117.418V97.73H122.65V92.498Z" fill="#461C00"/>
<path d="M122.65 102.962H117.418V108.194H122.65V102.962Z" fill="#461C00"/>
<path d="M122.65 118.658H117.418V150.057H122.65V118.658Z" fill="#461C00"/>
<path d="M122.65 165.761H117.418V181.457H122.65V165.761Z" fill="#461C00"/>
<path d="M122.65 197.159H117.418V233.79H122.65V197.159Z" fill="#461C00"/>
<path d="M122.65 239.022H117.418V244.254H122.65V239.022Z" fill="#461C00"/>
<path d="M127.88 19.2363H122.648V24.4683H127.88V19.2363Z" fill="#461C00"/>
<path d="M127.88 29.7002H122.648V40.1642H127.88V29.7002Z" fill="#461C00"/>
<path d="M127.88 55.8672H122.648V76.8023H127.88V55.8672Z" fill="#461C00"/>
<path d="M127.88 82.0273H122.648V102.962H127.88V82.0273Z" fill="#461C00"/>
<path d="M127.88 113.427H122.648V123.891H127.88V113.427Z" fill="#461C00"/>
<path d="M127.88 139.594H122.648V144.826H127.88V139.594Z" fill="#461C00"/>
<path d="M127.88 155.289H122.648V160.521H127.88V155.289Z" fill="#461C00"/>
<path d="M127.88 176.225H122.648V181.457H127.88V176.225Z" fill="#461C00"/>
<path d="M127.88 186.688H122.648V207.624H127.88V186.688Z" fill="#461C00"/>
<path d="M127.88 223.319H122.648V228.551H127.88V223.319Z" fill="#461C00"/>
<path d="M133.121 19.2363H127.889V24.4683H133.121V19.2363Z" fill="#461C00"/>
<path d="M133.121 34.9326H127.889V40.1646H133.121V34.9326Z" fill="#461C00"/>
<path d="M133.121 45.3965H127.889V50.6285H133.121V45.3965Z" fill="#461C00"/>
<path d="M133.121 55.8672H127.889V71.5632H133.121V55.8672Z" fill="#461C00"/>
<path d="M133.121 82.0273H127.889V92.4913H133.121V82.0273Z" fill="#461C00"/>
<path d="M133.121 118.658H127.889V123.89H133.121V118.658Z" fill="#461C00"/>
<path d="M133.121 129.13H127.889V134.362H133.121V129.13Z" fill="#461C00"/>
<path d="M133.121 139.594H127.889V150.058H133.121V139.594Z" fill="#461C00"/>
<path d="M133.121 165.761H127.889V176.225H133.121V165.761Z" fill="#461C00"/>
<path d="M133.121 202.392H127.889V207.624H133.121V202.392Z" fill="#461C00"/>
<path d="M133.121 212.855H127.889V218.087H133.121V212.855Z" fill="#461C00"/>
<path d="M133.121 223.319H127.889V228.551H133.121V223.319Z" fill="#461C00"/>
<path d="M133.121 233.791H127.889V239.023H133.121V233.791Z" fill="#461C00"/>
<path d="M138.353 13.9971H133.121V40.1642H138.353V13.9971Z" fill="#461C00"/>
<path d="M138.353 55.8672H133.121V66.3312H138.353V55.8672Z" fill="#461C00"/>
<path d="M138.353 71.5635H133.121V82.0275H138.353V71.5635Z" fill="#461C00"/>
<path d="M138.353 97.7305H133.121V102.962H138.353V97.7305Z" fill="#461C00"/>
<path d="M138.353 113.427H133.121V123.891H138.353V113.427Z" fill="#461C00"/>
<path d="M138.353 139.594H133.121V150.058H138.353V139.594Z" fill="#461C00"/>
<path d="M138.353 160.528H133.121V181.463H138.353V160.528Z" fill="#461C00"/>
<path d="M138.353 186.688H133.121V191.92H138.353V186.688Z" fill="#461C00"/>
<path d="M138.353 197.159H133.121V207.623H138.353V197.159Z" fill="#461C00"/>
<path d="M138.353 223.319H133.121V233.783H138.353V223.319Z" fill="#461C00"/>
<path d="M138.353 239.022H133.121V249.486H138.353V239.022Z" fill="#461C00"/>
<path d="M143.584 19.2363H138.352V24.4683H143.584V19.2363Z" fill="#461C00"/>
<path d="M143.584 34.9326H138.352V82.0277H143.584V34.9326Z" fill="#461C00"/>
<path d="M143.584 87.2588H138.352V92.4908H143.584V87.2588Z" fill="#461C00"/>
<path d="M143.584 108.194H138.352V113.426H143.584V108.194Z" fill="#461C00"/>
<path d="M143.584 118.658H138.352V144.825H143.584V118.658Z" fill="#461C00"/>
<path d="M143.584 155.289H138.352V176.224H143.584V155.289Z" fill="#461C00"/>
<path d="M143.584 197.159H138.352V249.486H143.584V197.159Z" fill="#461C00"/>
<path d="M148.816 19.2363H143.584V24.4683H148.816V19.2363Z" fill="#461C00"/>
<path d="M148.816 29.7002H143.584V34.9322H148.816V29.7002Z" fill="#461C00"/>
<path d="M148.816 40.1641H143.584V45.3961H148.816V40.1641Z" fill="#461C00"/>
<path d="M148.816 50.6279H143.584V55.8599H148.816V50.6279Z" fill="#461C00"/>
<path d="M148.816 61.0996H143.584V66.3316H148.816V61.0996Z" fill="#461C00"/>
<path d="M148.816 71.5635H143.584V87.2594H148.816V71.5635Z" fill="#461C00"/>
<path d="M148.816 102.962H143.584V118.658H148.816V102.962Z" fill="#461C00"/>
<path d="M148.816 123.897H143.584V129.129H148.816V123.897Z" fill="#461C00"/>
<path d="M148.816 134.361H143.584V139.593H148.816V134.361Z" fill="#461C00"/>
<path d="M148.816 144.825H143.584V150.057H148.816V144.825Z" fill="#461C00"/>
<path d="M148.816 160.528H143.584V191.927H148.816V160.528Z" fill="#461C00"/>
<path d="M148.816 212.855H143.584V223.319H148.816V212.855Z" fill="#461C00"/>
<path d="M148.816 228.559H143.584V233.791H148.816V228.559Z" fill="#461C00"/>
<path d="M148.816 239.022H143.584V244.254H148.816V239.022Z" fill="#461C00"/>
<path d="M154.048 13.9971H148.816V24.4611H154.048V13.9971Z" fill="#461C00"/>
<path d="M154.048 29.7002H148.816V34.9322H154.048V29.7002Z" fill="#461C00"/>
<path d="M154.048 45.3965H148.816V71.5636H154.048V45.3965Z" fill="#461C00"/>
<path d="M154.048 76.7949H148.816V82.0269H154.048V76.7949Z" fill="#461C00"/>
<path d="M154.048 87.2588H148.816V102.955H154.048V87.2588Z" fill="#461C00"/>
<path d="M154.048 113.427H148.816V123.891H154.048V113.427Z" fill="#461C00"/>
<path d="M154.048 139.594H148.816V144.826H154.048V139.594Z" fill="#461C00"/>
<path d="M154.048 150.058H148.816V160.522H154.048V150.058Z" fill="#461C00"/>
<path d="M154.048 186.688H148.816V197.152H154.048V186.688Z" fill="#461C00"/>
<path d="M154.048 202.392H148.816V207.624H154.048V202.392Z" fill="#461C00"/>
<path d="M154.048 218.088H148.816V223.32H154.048V218.088Z" fill="#461C00"/>
<path d="M154.048 239.022H148.816V244.254H154.048V239.022Z" fill="#461C00"/>
<path d="M159.281 29.7002H154.049V34.9322H159.281V29.7002Z" fill="#461C00"/>
<path d="M159.281 55.8672H154.049V71.5632H159.281V55.8672Z" fill="#461C00"/>
<path d="M159.281 102.962H154.049V113.426H159.281V102.962Z" fill="#461C00"/>
<path d="M159.281 123.897H154.049V129.129H159.281V123.897Z" fill="#461C00"/>
<path d="M159.281 160.528H154.049V165.76H159.281V160.528Z" fill="#461C00"/>
<path d="M159.281 176.225H154.049V181.457H159.281V176.225Z" fill="#461C00"/>
<path d="M159.281 186.688H154.049V191.92H159.281V186.688Z" fill="#461C00"/>
<path d="M159.281 207.624H154.049V218.088H159.281V207.624Z" fill="#461C00"/>
<path d="M159.281 228.559H154.049V239.023H159.281V228.559Z" fill="#461C00"/>
<path d="M164.511 24.4678H159.279V34.9318H164.511V24.4678Z" fill="#461C00"/>
<path d="M164.511 40.1641H159.279V55.86H164.511V40.1641Z" fill="#461C00"/>
<path d="M164.511 61.0996H159.279V66.3316H164.511V61.0996Z" fill="#461C00"/>
<path d="M164.511 82.0273H159.279V92.4913H164.511V82.0273Z" fill="#461C00"/>
<path d="M164.511 102.962H159.279V118.658H164.511V102.962Z" fill="#461C00"/>
<path d="M164.511 134.361H159.279V144.825H164.511V134.361Z" fill="#461C00"/>
<path d="M164.511 150.058H159.279V160.522H164.511V150.058Z" fill="#461C00"/>
<path d="M164.511 176.225H159.279V181.457H164.511V176.225Z" fill="#461C00"/>
<path d="M164.511 191.921H159.279V207.617H164.511V191.921Z" fill="#461C00"/>
<path d="M164.511 212.855H159.279V218.087H164.511V212.855Z" fill="#461C00"/>
<path d="M164.511 228.559H159.279V244.255H164.511V228.559Z" fill="#461C00"/>
<path d="M169.752 13.9971H164.52V19.2291H169.752V13.9971Z" fill="#461C00"/>
<path d="M169.752 24.4678H164.52V34.9318H169.752V24.4678Z" fill="#461C00"/>
<path d="M169.752 40.1641H164.52V45.3961H169.752V40.1641Z" fill="#461C00"/>
<path d="M169.752 50.6279H164.52V55.8599H169.752V50.6279Z" fill="#461C00"/>
<path d="M169.752 61.0996H164.52V66.3316H169.752V61.0996Z" fill="#461C00"/>
<path d="M169.752 76.7949H164.52V87.2589H169.752V76.7949Z" fill="#461C00"/>
<path d="M169.752 92.498H164.52V97.73H169.752V92.498Z" fill="#461C00"/>
<path d="M169.752 102.962H164.52V108.194H169.752V102.962Z" fill="#461C00"/>
<path d="M169.752 113.427H164.52V129.123H169.752V113.427Z" fill="#461C00"/>
<path d="M169.752 144.825H164.52V150.057H169.752V144.825Z" fill="#461C00"/>
<path d="M169.752 155.289H164.52V160.521H169.752V155.289Z" fill="#461C00"/>
<path d="M169.752 165.761H164.52V191.928H169.752V165.761Z" fill="#461C00"/>
<path d="M169.752 197.159H164.52V212.855H169.752V197.159Z" fill="#461C00"/>
<path d="M169.752 218.088H164.52V223.32H169.752V218.088Z" fill="#461C00"/>
<path d="M169.752 228.559H164.52V233.791H169.752V228.559Z" fill="#461C00"/>
<path d="M169.752 244.255H164.52V249.487H169.752V244.255Z" fill="#461C00"/>
<path d="M174.984 13.9971H169.752V19.2291H174.984V13.9971Z" fill="#461C00"/>
<path d="M174.984 29.7002H169.752V40.1642H174.984V29.7002Z" fill="#461C00"/>
<path d="M174.984 45.3965H169.752V66.3316H174.984V45.3965Z" fill="#461C00"/>
<path d="M174.984 71.5635H169.752V76.7955H174.984V71.5635Z" fill="#461C00"/>
<path d="M174.984 82.0273H169.752V87.2593H174.984V82.0273Z" fill="#461C00"/>
<path d="M174.984 102.962H169.752V108.194H174.984V102.962Z" fill="#461C00"/>
<path d="M174.984 118.658H169.752V129.122H174.984V118.658Z" fill="#461C00"/>
<path d="M174.984 134.361H169.752V150.057H174.984V134.361Z" fill="#461C00"/>
<path d="M174.984 165.761H169.752V170.993H174.984V165.761Z" fill="#461C00"/>
<path d="M174.984 176.225H169.752V191.921H174.984V176.225Z" fill="#461C00"/>
<path d="M174.984 197.159H169.752V212.855H174.984V197.159Z" fill="#461C00"/>
<path d="M174.984 223.319H169.752V249.486H174.984V223.319Z" fill="#461C00"/>
<path d="M180.214 19.2363H174.982V45.4034H180.214V19.2363Z" fill="#461C00"/>
<path d="M180.214 50.6279H174.982V66.3239H180.214V50.6279Z" fill="#461C00"/>
<path d="M180.214 82.0273H174.982V92.4913H180.214V82.0273Z" fill="#461C00"/>
<path d="M180.214 97.7305H174.982V102.962H180.214V97.7305Z" fill="#461C00"/>
<path d="M180.214 118.658H174.982V123.89H180.214V118.658Z" fill="#461C00"/>
<path d="M180.214 129.13H174.982V134.362H180.214V129.13Z" fill="#461C00"/>
<path d="M180.214 144.825H174.982V176.224H180.214V144.825Z" fill="#461C00"/>
<path d="M180.214 181.456H174.982V191.92H180.214V181.456Z" fill="#461C00"/>
<path d="M180.214 197.159H174.982V202.391H180.214V197.159Z" fill="#461C00"/>
<path d="M180.214 223.319H174.982V239.015H180.214V223.319Z" fill="#461C00"/>
<path d="M180.214 244.255H174.982V249.487H180.214V244.255Z" fill="#461C00"/>
<path d="M185.447 24.4678H180.215V34.9318H185.447V24.4678Z" fill="#461C00"/>
<path d="M185.447 45.3965H180.215V55.8605H185.447V45.3965Z" fill="#461C00"/>
<path d="M185.447 61.0996H180.215V82.0347H185.447V61.0996Z" fill="#461C00"/>
<path d="M185.447 102.962H180.215V108.194H185.447V102.962Z" fill="#461C00"/>
<path d="M185.447 113.427H180.215V118.659H185.447V113.427Z" fill="#461C00"/>
<path d="M185.447 123.897H180.215V129.129H185.447V123.897Z" fill="#461C00"/>
<path d="M185.447 134.361H180.215V150.057H185.447V134.361Z" fill="#461C00"/>
<path d="M185.447 176.225H180.215V181.457H185.447V176.225Z" fill="#461C00"/>
<path d="M185.447 186.688H180.215V207.624H185.447V186.688Z" fill="#461C00"/>
<path d="M185.447 212.855H180.215V218.087H185.447V212.855Z" fill="#461C00"/>
<path d="M185.447 239.022H180.215V244.254H185.447V239.022Z" fill="#461C00"/>
<path d="M190.679 24.4678H185.447V45.4029H190.679V24.4678Z" fill="#461C00"/>
<path d="M190.679 50.6279H185.447V76.795H190.679V50.6279Z" fill="#461C00"/>
<path d="M190.679 82.0273H185.447V97.7233H190.679V82.0273Z" fill="#461C00"/>
<path d="M190.679 102.962H185.447V118.658H190.679V102.962Z" fill="#461C00"/>
<path d="M190.679 123.897H185.447V134.361H190.679V123.897Z" fill="#461C00"/>
<path d="M190.679 144.825H185.447V160.521H190.679V144.825Z" fill="#461C00"/>
<path d="M190.679 165.761H185.447V202.392H190.679V165.761Z" fill="#461C00"/>
<path d="M190.679 207.624H185.447V212.856H190.679V207.624Z" fill="#461C00"/>
<path d="M190.679 218.088H185.447V249.487H190.679V218.088Z" fill="#461C00"/>
<path d="M195.912 34.9326H190.68V40.1646H195.912V34.9326Z" fill="#461C00"/>
<path d="M195.912 45.3965H190.68V50.6285H195.912V45.3965Z" fill="#461C00"/>
<path d="M195.912 61.0996H190.68V82.0347H195.912V61.0996Z" fill="#461C00"/>
<path d="M195.912 87.2588H190.68V92.4908H195.912V87.2588Z" fill="#461C00"/>
<path d="M195.912 113.427H190.68V144.826H195.912V113.427Z" fill="#461C00"/>
<path d="M195.912 150.058H190.68V160.522H195.912V150.058Z" fill="#461C00"/>
<path d="M195.912 186.688H190.68V197.152H195.912V186.688Z" fill="#461C00"/>
<path d="M195.912 202.392H190.68V207.624H195.912V202.392Z" fill="#461C00"/>
<path d="M195.912 212.855H190.68V218.087H195.912V212.855Z" fill="#461C00"/>
<path d="M195.912 223.319H190.68V228.551H195.912V223.319Z" fill="#461C00"/>
<path d="M201.144 19.2363H195.912V40.1714H201.144V19.2363Z" fill="#461C00"/>
<path d="M201.144 55.8672H195.912V61.0992H201.144V55.8672Z" fill="#461C00"/>
<path d="M201.144 66.3311H195.912V97.7301H201.144V66.3311Z" fill="#461C00"/>
<path d="M201.144 102.962H195.912V108.194H201.144V102.962Z" fill="#461C00"/>
<path d="M201.144 113.427H195.912V134.362H201.144V113.427Z" fill="#461C00"/>
<path d="M201.144 155.289H195.912V160.521H201.144V155.289Z" fill="#461C00"/>
<path d="M201.144 165.761H195.912V176.225H201.144V165.761Z" fill="#461C00"/>
<path d="M201.144 191.921H195.912V233.784H201.144V191.921Z" fill="#461C00"/>
<path d="M201.144 239.022H195.912V249.486H201.144V239.022Z" fill="#461C00"/>
<path d="M206.382 13.9971H201.15V19.2291H206.382V13.9971Z" fill="#461C00"/>
<path d="M206.382 29.7002H201.15V40.1642H206.382V29.7002Z" fill="#461C00"/>
<path d="M206.382 45.3965H201.15V55.8605H206.382V45.3965Z" fill="#461C00"/>
<path d="M206.382 61.0996H201.15V76.7956H206.382V61.0996Z" fill="#461C00"/>
<path d="M206.382 82.0273H201.15V87.2593H206.382V82.0273Z" fill="#461C00"/>
<path d="M206.382 102.962H201.15V108.194H206.382V102.962Z" fill="#461C00"/>
<path d="M206.382 118.658H201.15V155.289H206.382V118.658Z" fill="#461C00"/>
<path d="M206.382 165.761H201.15V170.993H206.382V165.761Z" fill="#461C00"/>
<path d="M206.382 191.921H201.15V228.552H206.382V191.921Z" fill="#461C00"/>
<path d="M206.382 233.791H201.15V244.255H206.382V233.791Z" fill="#461C00"/>
<path d="M211.615 55.8672H206.383V61.0992H211.615V55.8672Z" fill="#461C00"/>
<path d="M211.615 66.3311H206.383V76.795H211.615V66.3311Z" fill="#461C00"/>
<path d="M211.615 82.0273H206.383V108.194H211.615V82.0273Z" fill="#461C00"/>
<path d="M211.615 113.427H206.383V123.891H211.615V113.427Z" fill="#461C00"/>
<path d="M211.615 139.594H206.383V144.826H211.615V139.594Z" fill="#461C00"/>
<path d="M211.615 155.289H206.383V160.521H211.615V155.289Z" fill="#461C00"/>
<path d="M211.615 170.992H206.383V176.224H211.615V170.992Z" fill="#461C00"/>
<path d="M211.615 181.456H206.383V186.688H211.615V181.456Z" fill="#461C00"/>
<path d="M211.615 191.921H206.383V197.153H211.615V191.921Z" fill="#461C00"/>
<path d="M211.615 202.392H206.383V207.624H211.615V202.392Z" fill="#461C00"/>
<path d="M211.615 223.319H206.383V228.551H211.615V223.319Z" fill="#461C00"/>
<path d="M211.615 233.791H206.383V244.255H211.615V233.791Z" fill="#461C00"/>
<path d="M216.847 13.9971H211.615V50.6281H216.847V13.9971Z" fill="#461C00"/>
<path d="M216.847 55.8672H211.615V71.5632H216.847V55.8672Z" fill="#461C00"/>
<path d="M216.847 76.7949H211.615V82.0269H216.847V76.7949Z" fill="#461C00"/>
<path d="M216.847 87.2588H211.615V97.7228H216.847V87.2588Z" fill="#461C00"/>
<path d="M216.847 113.427H211.615V123.891H216.847V113.427Z" fill="#461C00"/>
<path d="M216.847 129.13H211.615V134.362H216.847V129.13Z" fill="#461C00"/>
<path d="M216.847 139.594H211.615V150.058H216.847V139.594Z" fill="#461C00"/>
<path d="M216.847 160.528H211.615V181.463H216.847V160.528Z" fill="#461C00"/>
<path d="M216.847 186.688H211.615V191.92H216.847V186.688Z" fill="#461C00"/>
<path d="M216.847 197.159H211.615V207.623H216.847V197.159Z" fill="#461C00"/>
<path d="M216.847 212.855H211.615V218.087H216.847V212.855Z" fill="#461C00"/>
<path d="M216.847 223.319H211.615V228.551H216.847V223.319Z" fill="#461C00"/>
<path d="M216.847 244.255H211.615V249.487H216.847V244.255Z" fill="#461C00"/>
<path d="M222.078 13.9971H216.846V19.2291H222.078V13.9971Z" fill="#461C00"/>
<path d="M222.078 45.3965H216.846V50.6285H222.078V45.3965Z" fill="#461C00"/>
<path d="M222.078 61.0996H216.846V71.5636H222.078V61.0996Z" fill="#461C00"/>
<path d="M222.078 82.0273H216.846V87.2593H222.078V82.0273Z" fill="#461C00"/>
<path d="M222.078 92.498H216.846V97.73H222.078V92.498Z" fill="#461C00"/>
<path d="M222.078 102.962H216.846V108.194H222.078V102.962Z" fill="#461C00"/>
<path d="M222.078 113.427H216.846V123.891H222.078V113.427Z" fill="#461C00"/>
<path d="M222.078 139.594H216.846V150.058H222.078V139.594Z" fill="#461C00"/>
<path d="M222.078 155.289H216.846V160.521H222.078V155.289Z" fill="#461C00"/>
<path d="M222.078 165.761H216.846V176.225H222.078V165.761Z" fill="#461C00"/>
<path d="M222.078 181.456H216.846V191.92H222.078V181.456Z" fill="#461C00"/>
<path d="M222.078 202.392H216.846V207.624H222.078V202.392Z" fill="#461C00"/>
<path d="M222.078 223.319H216.846V228.551H222.078V223.319Z" fill="#461C00"/>
<path d="M222.078 239.022H216.846V249.486H222.078V239.022Z" fill="#461C00"/>
<path d="M227.31 13.9971H222.078V19.2291H227.31V13.9971Z" fill="#461C00"/>
<path d="M227.31 24.4678H222.078V40.1637H227.31V24.4678Z" fill="#461C00"/>
<path d="M227.31 45.3965H222.078V50.6285H227.31V45.3965Z" fill="#461C00"/>
<path d="M227.31 71.5635H222.078V87.2594H227.31V71.5635Z" fill="#461C00"/>
<path d="M227.31 102.962H222.078V108.194H227.31V102.962Z" fill="#461C00"/>
<path d="M227.31 113.427H222.078V144.826H227.31V113.427Z" fill="#461C00"/>
<path d="M227.31 150.058H222.078V155.29H227.31V150.058Z" fill="#461C00"/>
<path d="M227.31 160.528H222.078V165.76H227.31V160.528Z" fill="#461C00"/>
<path d="M227.31 170.992H222.078V176.224H227.31V170.992Z" fill="#461C00"/>
<path d="M227.31 181.456H222.078V191.92H227.31V181.456Z" fill="#461C00"/>
<path d="M227.31 197.159H222.078V244.254H227.31V197.159Z" fill="#461C00"/>
<path d="M232.543 13.9971H227.311V19.2291H232.543V13.9971Z" fill="#461C00"/>
<path d="M232.543 24.4678H227.311V40.1637H232.543V24.4678Z" fill="#461C00"/>
<path d="M232.543 45.3965H227.311V50.6285H232.543V45.3965Z" fill="#461C00"/>
<path d="M232.543 55.8672H227.311V61.0992H232.543V55.8672Z" fill="#461C00"/>
<path d="M232.543 66.3311H227.311V71.563H232.543V66.3311Z" fill="#461C00"/>
<path d="M232.543 82.0273H227.311V102.962H232.543V82.0273Z" fill="#461C00"/>
<path d="M232.543 108.194H227.311V118.658H232.543V108.194Z" fill="#461C00"/>
<path d="M232.543 123.897H227.311V129.129H232.543V123.897Z" fill="#461C00"/>
<path d="M232.543 134.361H227.311V139.593H232.543V134.361Z" fill="#461C00"/>
<path d="M232.543 150.058H227.311V155.29H232.543V150.058Z" fill="#461C00"/>
<path d="M232.543 165.761H227.311V170.993H232.543V165.761Z" fill="#461C00"/>
<path d="M232.543 176.225H227.311V186.689H232.543V176.225Z" fill="#461C00"/>
<path d="M232.543 191.921H227.311V212.856H232.543V191.921Z" fill="#461C00"/>
<path d="M232.543 218.088H227.311V233.784H232.543V218.088Z" fill="#461C00"/>
<path d="M232.543 244.255H227.311V249.487H232.543V244.255Z" fill="#461C00"/>
<path d="M237.775 13.9971H232.543V19.2291H237.775V13.9971Z" fill="#461C00"/>
<path d="M237.775 24.4678H232.543V40.1637H237.775V24.4678Z" fill="#461C00"/>
<path d="M237.775 45.3965H232.543V50.6285H237.775V45.3965Z" fill="#461C00"/>
<path d="M237.775 55.8672H232.543V76.8023H237.775V55.8672Z" fill="#461C00"/>
<path d="M237.775 87.2588H232.543V118.658H237.775V87.2588Z" fill="#461C00"/>
<path d="M237.775 123.897H232.543V139.593H237.775V123.897Z" fill="#461C00"/>
<path d="M237.775 150.058H232.543V160.522H237.775V150.058Z" fill="#461C00"/>
<path d="M237.775 176.225H232.543V181.457H237.775V176.225Z" fill="#461C00"/>
<path d="M237.775 186.688H232.543V202.384H237.775V186.688Z" fill="#461C00"/>
<path d="M237.775 207.624H232.543V223.32H237.775V207.624Z" fill="#461C00"/>
<path d="M237.775 239.022H232.543V244.254H237.775V239.022Z" fill="#461C00"/>
<path d="M243.013 13.9971H237.781V19.2291H243.013V13.9971Z" fill="#461C00"/>
<path d="M243.013 45.3965H237.781V50.6285H243.013V45.3965Z" fill="#461C00"/>
<path d="M243.013 55.8672H237.781V71.5632H243.013V55.8672Z" fill="#461C00"/>
<path d="M243.013 76.7949H237.781V102.962H243.013V76.7949Z" fill="#461C00"/>
<path d="M243.013 118.658H237.781V129.122H243.013V118.658Z" fill="#461C00"/>
<path d="M243.013 134.361H237.781V144.825H243.013V134.361Z" fill="#461C00"/>
<path d="M243.013 150.058H237.781V155.29H243.013V150.058Z" fill="#461C00"/>
<path d="M243.013 160.528H237.781V165.76H243.013V160.528Z" fill="#461C00"/>
<path d="M243.013 176.225H237.781V181.457H243.013V176.225Z" fill="#461C00"/>
<path d="M243.013 186.688H237.781V202.384H243.013V186.688Z" fill="#461C00"/>
<path d="M243.013 207.624H237.781V212.856H243.013V207.624Z" fill="#461C00"/>
<path d="M243.013 218.088H237.781V223.32H243.013V218.088Z" fill="#461C00"/>
<path d="M243.013 244.255H237.781V249.487H243.013V244.255Z" fill="#461C00"/>
<path d="M248.246 13.9971H243.014V50.6281H248.246V13.9971Z" fill="#461C00"/>
<path d="M248.246 82.0273H243.014V87.2593H248.246V82.0273Z" fill="#461C00"/>
<path d="M248.246 92.498H243.014V113.433H248.246V92.498Z" fill="#461C00"/>
<path d="M248.246 144.825H243.014V150.057H248.246V144.825Z" fill="#461C00"/>
<path d="M248.246 160.528H243.014V176.224H248.246V160.528Z" fill="#461C00"/>
<path d="M248.246 202.392H243.014V212.856H248.246V202.392Z" fill="#461C00"/>
<path d="M248.246 218.088H243.014V223.32H248.246V218.088Z" fill="#461C00"/>
<path d="M248.246 228.559H243.014V239.023H248.246V228.559Z" fill="#461C00"/>
</g>
<defs>
<clipPath id="clip0_1104_22051">
<rect width="261" height="261" fill="white"/>
</clipPath>
</defs>
</svg>
