<?xml version="1.0" encoding="UTF-8"?><svg id="Layer_2" xmlns="http://www.w3.org/2000/svg" viewBox="0 0 39 39"><defs><style>.cls-1{fill:#fff;}.cls-2{fill:#a97c50;}</style></defs><g id="Layer_1-2"><path class="cls-1" d="M19.5,0C8.75,0,0,8.75,0,19.5s8.75,19.5,19.5,19.5,19.5-8.75,19.5-19.5S30.25,0,19.5,0Z"/><path class="cls-2" d="M37.5,19.5c0,9.94-8.06,18-18,18S1.5,29.44,1.5,19.5,9.56,1.5,19.5,1.5s18,8.06,18,18"/><path class="cls-1" d="M29.62,10.03c-.12-.32-.29-.58-.48-.8-.2-.44-.07-.87.3-1.17.32-.27-.1-.78-.45-.57-.43.26-1.09.16-1.59.09-.17-.1-.36-.19-.56-.27-3.66-1.48-6.98,1.44-8.44,4.55-1.16,2.46-1.38,5.14-3.27,7.24-1.57,1.74-3.63,2.93-4.97,4.89-4.61,6.74,5.36,11.84,9.42,5.59,2.52-3.87,1.11-9,5.81-11.16,3.28-1.51,5.61-4.74,4.23-8.38ZM10.87,25.36c0-.43.34-.77.77-.77s.77.35.77.77-.35.77-.77.77-.77-.35-.77-.77ZM12.23,29.99c-.54,0-.98-.44-.98-.98s.44-.98.98-.98.98.44.98.98-.44.98-.98.98ZM13.72,26.64c-.28,0-.51-.23-.51-.51s.23-.51.51-.51.51.23.51.51-.23.51-.51.51ZM26.16,9.71c1.27,0,1.27,1.95,0,1.95s-1.27-1.95,0-1.95ZM27,14.52c-1.12,0-1.12-1.72,0-1.72s1.12,1.72,0,1.72Z"/></g></svg>