<?xml version="1.0" encoding="UTF-8"?><svg id="Layer_2" xmlns="http://www.w3.org/2000/svg" viewBox="0 0 39 39"><defs><style>.cls-1{fill:#fff;}.cls-2{fill:#b6a431;}</style></defs><g id="Layer_1-2"><path class="cls-1" d="M19.5,0C8.75,0,0,8.75,0,19.5s8.75,19.5,19.5,19.5,19.5-8.75,19.5-19.5S30.25,0,19.5,0Z"/><path class="cls-2" d="M37.5,19.5c0,9.94-8.06,18-18,18S1.5,29.44,1.5,19.5,9.56,1.5,19.5,1.5s18,8.06,18,18"/><path class="cls-1" d="M27.75,13.9c-.91,1.44-2.54,2.05-3.64,1.36-1.1-.69-1.26-2.43-.35-3.87.91-1.44,2.54-2.05,3.64-1.36,1.1.69,1.25,2.43.35,3.87M23.43,21.22c-1.22,1.47-3.11,1.9-4.22.98-1.12-.93-1.04-2.87.18-4.33,1.22-1.47,3.11-1.9,4.22-.98,1.12.93,1.04,2.87-.18,4.33M16.37,27.8c-1.41,1.17-3.27,1.25-4.17.18-.89-1.07-.48-2.89.93-4.06,1.41-1.17,3.27-1.25,4.17-.18.89,1.07.48,2.89-.93,4.06M28.44,7c-.1-.31-.44-.3-.63-.13-.05.04-.1.09-.13.17-.68,1.88-3.02,1.54-4.34,2.69-.6.52-.99,1.22-1.23,1.98-.18.56-.13,1.12-.26,1.67-.29,1.22-.68,1.48-1.76,1.87-.77.28-1.57.7-2.01,1.41-.78,1.28-.86,2.72-1.93,3.89-1.17,1.28-2.75,1.52-4.11,2.45-.78.54-1.41,1.29-1.82,2.15-.5,1.05-.29,3.83-1.47,4.27-.24.09-.29.33-.21.51.03.19.17.35.41.34,2.69-.21,6.83.23,8.95-1.83,1.12-1.09,1.44-2.64,2.84-3.51,1.32-.82,2.51-.91,3.72-1.98,1.13-1.01,1.49-1.88,1.92-3.28.22-.7.23-2.12.57-2.77.42-.78,1.16-1.06,1.67-1.72,1.67-2.14.53-5.89-.2-8.18"/></g></svg>