<?xml version="1.0" encoding="UTF-8"?><svg id="Layer_2" xmlns="http://www.w3.org/2000/svg" viewBox="0 0 39 39"><defs><style>.cls-1{fill:#fff;}.cls-2{fill:#1c75bc;}</style></defs><g id="Layer_1-2"><path class="cls-1" d="M19.5,0C8.75,0,0,8.75,0,19.5s8.75,19.5,19.5,19.5,19.5-8.75,19.5-19.5S30.25,0,19.5,0Z"/><path class="cls-2" d="M37.5,19.5c0,9.94-8.06,18-18,18S1.5,29.44,1.5,19.5,9.56,1.5,19.5,1.5s18,8.06,18,18"/><path class="cls-1" d="M32.09,20.65c.83.61,1.71,1.17,2.57,1.75v-.3c-.68-.94-1.36-1.87-2.03-2.81-.58-.81-1.33-1.04-2.26-.71-1.18.42-2.36.86-3.6,1.31-.14-.28-.26-.51.27-.76,1.79-.83,3.14-2.19,4.23-3.81.7-1.03.74-2.09-.03-3.1-.52-.68-1.03-1.41-1.69-1.92-.57-.43-1.39-.71-2.05-.84-.67-.13-1.7-.23-2.59-.14-.89.09-2.8.54-4.19.74-.07.01-.14.04-.31.09,2.21.64,4.1,1.14,5.51,1.69-.02.09-.05.17-.07.26-1.55.35-3.15.6-4.77.83.76.85,2.1,1.23,3.8,1.35.54.04,1.77.03,2.22.06.63.04.91.36.64.95-.43.93-1.06,2.09-1.54,3.03-.62-.82-.97-1.13-1.59-1.57-1.92-1.37-8.07-1.43-10.11-.09-.71.46-1.32.93-1.56,1.5-.53-1.07-1-1.99-1.45-2.92,0-.01-.02-.04-.03-.05-.19-.51.08-.8.66-.84.45-.03,1.59-.02,2.66-.17,1.36-.19,2.42-.26,3.35-1.14-1.56-.24-2.9-.46-4.77-.92-.02-.09-.05-.17-.07-.26,1.79-.7,3.6-1.15,5.51-1.69-.17-.05-.24-.08-.31-.09-1.4-.2-3.3-.65-4.19-.74-.89-.09-1.92,0-2.59.14-.67.13-1.48.41-2.05.84-.67.51-1.17,1.24-1.69,1.92-.77,1.01-.73,2.06-.03,3.1h0c1.07,1.69,2.78,3.18,4.65,3.99-.01.24-.03.5-.04.84-.93-.39-1.78-.76-2.63-1.12-.3-.13-.62-.21-.92-.34-1.14-.46-2.13-.36-2.84.76-.61.95-1.21,1.91-1.81,2.86.97-.64,1.93-1.31,2.94-1.89.39-.22.94-.38,1.36-.27,1.21.29,2.38.73,3.57,1.11-.02.06-.03.12-.05.18-.89.06-1.79.11-2.67.2-1.45.15-1.85.48-2.21,1.87-.28,1.05-.5,2.11-.74,3.16.07.03.15.06.22.09.35-.55.8-1.06,1.05-1.65.9-2.13,2.73-2.32,4.67-2.33.1,0,.28.14.29.23.01.09-.11.26-.22.3-.61.23-1.24.43-1.86.66-.79.31-1.35.83-1.37,1.73-.02,1.25,0,2.51.15,3.81.16-.45.32-.9.48-1.35.15-.43.35-.85.46-1.29.34-1.4,1.41-1.95,2.66-2.3.14-.04.36-.01.48.07.46.31.92.62,1.31,1,.14.14.17.49.12.73-.17.86-.13,1.68.27,2.45.38-.84.71-1.64,1.11-2.41.1-.2.41-.35.64-.4,1.7-.34,3.4-.34,5.11-.1.21.03.5.17.59.34.44.81.81,1.65,1.21,2.48.63-.91.38-1.97.14-2.97.51-.38.98-.74,1.47-1.09.09-.07.25-.15.33-.12.87.37,1.92.48,2.32,1.53.46,1.2.89,2.42,1.33,3.63h.15c0-1.24,0-2.48,0-3.72,0-1.04-.49-1.72-1.46-2.05-.5-.17-1.01-.33-1.5-.53-.11-.05-.21-.24-.23-.38,0-.06.2-.21.32-.21,1.76-.02,3.38.23,4.24,2.1.32.7.81,1.33,1.21,1.99.08-.03.16-.05.25-.08-.38-1.4-.7-2.81-1.15-4.19-.28-.86-1.18-.87-1.91-.98-.85-.12-1.71-.14-2.63-.35.91-.35,1.83-.69,2.75-1.03.92-.34,1.77-.21,2.58.38"/></g></svg>