<?xml version="1.0" encoding="UTF-8"?><svg id="Layer_2" xmlns="http://www.w3.org/2000/svg" viewBox="0 0 39 39"><defs><style>.cls-1{fill:#fff;}.cls-2{fill:#81246c;}</style></defs><g id="Layer_1-2"><path class="cls-1" d="M19.5,0C8.75,0,0,8.75,0,19.5s8.75,19.5,19.5,19.5,19.5-8.75,19.5-19.5S30.25,0,19.5,0Z"/><path class="cls-2" d="M19.5,1.5C9.56,1.5,1.5,9.56,1.5,19.5s8.06,18,18,18,18-8.06,18-18S29.44,1.5,19.5,1.5Z"/><path class="cls-1" d="M27.22,30.85c0-5.46,0-7.23,0-12.69,0-1.37,0-2.75-.01-4.12,0-.18-.02-.37-.07-.55-.19-.63-.45-1.23-.88-1.74-.57-.68-1.28-1.12-2.11-1.4-.39-.13-.8-.14-1.2-.17-.37-.03-.6-.27-.61-.65-.01-.36,0-.72,0-1.08,0-.11.04-.16.14-.21.33-.17.54-.42.6-.8.09-.51-.21-1.19-.87-1.24-.36-.03-.72-.08-1.08-.09-.54-.02-1.08,0-1.61,0-.68,0-1.37,0-2.05,0,0,0,0,.01,0,.02.08,0,.15.01.23.02,0,.01,0,.02,0,.03-.05,0-.1,0-.15,0-.21,0-.42,0-.63.01-.25.01-.47.1-.66.28-.19.18-.21.43-.28.66-.1.33.05.58.23.82.07.09.15.19.26.24.22.1.25.12.24.35,0,.33,0,.66-.02.99-.01.4-.26.64-.66.64-.38,0-.75.02-1.1.17-.33.13-.68.21-.99.4-.58.37-1.1.8-1.46,1.39-.42.7-.69,1.45-.69,2.29,0,7,0,10.32,0,17.32,0,.23.05.44.21.62.27.32.56.59,1.03.52,0,0,.01,0,.02,0,1.03,0,2.06,0,3.1,0,3.26,0,6.53,0,9.79,0,.28,0,.55,0,.79-.19.3-.23.53-.49.52-.9,0-.32,0-.64,0-.96ZM16.03,22.63c0-.7.57-1.27,1.27-1.27s1.27.57,1.27,1.27-.57,1.27-1.27,1.27-1.27-.57-1.27-1.27ZM17.73,25.6c0-.7.57-1.27,1.27-1.27s1.27.57,1.27,1.27-.57,1.27-1.27,1.27-1.27-.57-1.27-1.27ZM21.1,19.83c.04.24.04.49.04.73h-.85c0-.5-.06-.99-.19-1.47-.15-.53-.4-.95-.73-1.23-.18-.15-.2-.42-.05-.6.1-.11.18-.14.33-.15.1,0,.19.04.27.1.27.22.48.5.66.8.43-.5.85-.79,1.34-.88.14-.02.24-.02.34-.03.54.04.94.23,1.32.45.15.09.28.2.41.3.14.12.15.13.16.14.13.13.16.32.09.49-.07.13-.1.19-.14.25-.11.18-.24.36-.38.52-.37.42-.79.72-1.28.8-.5.08-.91-.04-1.32-.24ZM21.98,22.63c0,.7-.57,1.27-1.27,1.27s-1.27-.57-1.27-1.27.57-1.27,1.27-1.27,1.27.57,1.27,1.27ZM20.7,29.85c-.7,0-1.27-.57-1.27-1.27s.57-1.27,1.27-1.27,1.27.57,1.27,1.27-.57,1.27-1.27,1.27ZM22.4,26.88c-.7,0-1.27-.57-1.27-1.27s.57-1.27,1.27-1.27,1.27.57,1.27,1.27-.57,1.27-1.27,1.27ZM24.1,23.91c-.7,0-1.27-.57-1.27-1.27s.57-1.27,1.27-1.27,1.27.57,1.27,1.27-.57,1.27-1.27,1.27ZM25.75,16.44c-3.35,0-6.7,0-10.05.01-.39,0-.78,0-1.17,0-.12,0-.19.05-.19.17,0,.13,0,.26,0,.39,0,.88-.02,1.76-.02,2.64,0,5,0,6.31,0,11.3,0,.15,0,.29,0,.44,0,.09-.02.13-.12.13-.32,0-.64,0-.96,0-.08,0-.12-.03-.11-.11,0-.05,0-.11,0-.16,0-6.58,0-9.47,0-16.05,0-.27,0-.53,0-.8.06-1.12.58-1.95,1.55-2.48.47-.26.98-.33,1.51-.38.55-.05,1.05-.26,1.41-.73.3-.41.44-.85.45-1.35,0-.3,0-.61,0-.91,0-.09.03-.13.12-.13.42,0,.84,0,1.25,0,.45,0,.9,0,1.35,0,.13,0,.18.04.18.18-.01.31,0,.62-.01.93-.02.5.16.94.47,1.31.2.24.41.54.79.55.03,0,.07.06.1.1,0,.01-.01.03-.02.04.17,0,.35.03.52.02.44-.02.86.08,1.25.24.44.18.86.44,1.13.86.14.22.3.42.41.65.1.2.2.42.21.64.03.81.03,1.62.03,2.43,0,.03-.06.1-.1.1Z"/></g></svg>